<?xml version="1.0" encoding="UTF-8"?>
<svg width="76px" height="76px" viewBox="0 0 76 76" version="1.1" xmlns="http://www.w3.org/2000/svg" xmlns:xlink="http://www.w3.org/1999/xlink">
    <g stroke="none" stroke-width="1" fill="none" fill-rule="evenodd">
        <g transform="translate(-337.000000, -608.000000)" fill="#FFFFFF" fill-rule="nonzero">
            <g id="toast" transform="translate(147.000000, 568.000000)">
                <path d="M228,113 C247.329966,113 263,97.3299662 263,78 C263,58.6700338 247.329966,43 228,43 C208.670034,43 193,58.6700338 193,78 C193,97.3299662 208.670034,113 228,113 Z M228,116 C207.01318,116 190,98.9868205 190,78 C190,57.0131795 207.01318,40 228,40 C248.98682,40 266,57.0131795 266,78 C266,98.9868205 248.98682,116 228,116 Z M227,58 C228.60884,58 229.913062,59.3042223 229.913062,60.913062 C229.913062,60.9416137 229.912642,60.9701639 229.911803,60.9987033 L229.058798,90.0008645 C229.026049,91.1143381 228.113955,92 227,92 C225.886045,92 224.973951,91.1143381 224.941202,90.0008645 L224.088197,60.9987033 C224.040899,59.390559 225.306214,58.0485575 226.914359,58.0012592 C226.942898,58.0004198 226.971448,58 227,58 Z M227,100 C225.343146,100 224,98.6568542 224,97 C224,95.3431458 225.343146,94 227,94 C228.656854,94 230,95.3431458 230,97 C230,98.6568542 228.656854,100 227,100 Z" id="caution"></path>
            </g>
        </g>
    </g>
</svg>
